<?xml version="1.0" encoding="utf-8"?>
<!-- Generator: Adobe Illustrator 22.0.1, SVG Export Plug-In . SVG Version: 6.00 Build 0)  -->
<svg version="1.1" id="Capa_1" xmlns="http://www.w3.org/2000/svg" xmlns:xlink="http://www.w3.org/1999/xlink" x="0px" y="0px"
	 viewBox="56.7 12.8 153.1 127.6" style="enable-background:new 56.7 12.8 153.1 127.6;" xml:space="preserve">
<g>
	<g>
		<path d="M207.2,127.6c1.4,0,2.6-1.1,2.6-2.6V35.7c0-1.4-1.1-2.6-2.6-2.6h-102c-0.2,0-0.3,0-0.5,0l-28.1,5.1
			c-1.2,0.2-2.1,1.3-2.1,2.5v20.4c0,1.4,1.1,2.6,2.6,2.6h25.5v5.1H72c-1,0-2,0.6-2.4,1.6l-12.8,30.3c-0.1,0.3-0.2,0.6-0.2,1V125
			c0,1.4,1.1,2.6,2.6,2.6h7.9c0.5,2.9,1.8,5.5,3.7,7.7H56.7v5.1h153.1v-5.1h-19.2c1.9-2.1,3.2-4.8,3.7-7.7H207.2z M69.4,84.2H72
			v12.8h-8L69.4,84.2z M82.2,135.2c-5.6,0-10.2-4.6-10.2-10.2c0-5.6,4.6-10.2,10.2-10.2c5.6,0,10.2,4.6,10.2,10.2
			C92.4,130.6,87.8,135.2,82.2,135.2z M79.7,109.9c-6.4,1.1-11.5,6.1-12.5,12.5h-5.3v-10.2h5.1v-5.1h-5.1v-4.9l0.1-0.2H95
			c1.4,0,2.6-1.1,2.6-2.6V81.6c0-1.4-1.1-2.6-2.6-2.6H71.5l2.1-5.1h28.9v48.5h-5.3C95.9,114.1,88,108.5,79.7,109.9z M77.1,96.9V84.2
			h15.3v12.8H77.1z M93.6,135.2c1.9-2.1,3.2-4.8,3.7-7.7h66.8c0.5,2.9,1.8,5.5,3.7,7.7H93.6z M107.7,122.5v-5.1h58.2
			c-0.9,1.6-1.5,3.3-1.8,5.1H107.7z M179.2,135.2c-5.6,0-10.2-4.6-10.2-10.2c0-5.6,4.6-10.2,10.2-10.2s10.2,4.6,10.2,10.2
			C189.4,130.6,184.8,135.2,179.2,135.2z M187.6,112.3c-5.1-3.4-11.8-3.4-16.9,0h-63v-51c0-1.4-1.1-2.6-2.6-2.6H79.7V42.9l25.7-4.7
			h99.3v74H187.6z M204.7,117.4v5.1h-10.4c-0.3-1.8-0.9-3.5-1.8-5.1H204.7z"/>
	</g>
	<g>
		<rect x="92.4" y="104.6" width="5.1" height="2.6"/>
	</g>
	<g>
		<rect x="148.5" y="12.8" width="2.6" height="5.1"/>
	</g>
	<g>
		<rect x="115.4" y="12.8" width="28.1" height="5.1"/>
	</g>
	<g>
		<rect x="161.3" y="23" width="25.5" height="5.1"/>
	</g>
	<g>
		<rect x="191.9" y="23" width="2.6" height="5.1"/>
	</g>
	<g>
		<rect x="153.6" y="12.8" width="2.6" height="5.1"/>
	</g>
	<g>
		<rect x="197" y="23" width="2.6" height="5.1"/>
	</g>
</g>
</svg>
