<?xml version="1.0" encoding="utf-8"?>
<!-- Generator: Adobe Illustrator 22.0.1, SVG Export Plug-In . SVG Version: 6.00 Build 0)  -->
<svg version="1.1" id="Outline" xmlns="http://www.w3.org/2000/svg" xmlns:xlink="http://www.w3.org/1999/xlink" x="0px" y="0px"
	 viewBox="15 19.6 481.1 431.4" style="enable-background:new 15 19.6 481.1 431.4;" xml:space="preserve">
<path d="M464,115.1v-16h-40V19.5l-8.8,0.8C355.4,26,299.4,52.4,256.8,95l-4.2,4.2H48v16H16v336h210.7c10.6,0,20.8-4.2,28.3-11.7l1-1
	l1,1c7.5,7.5,17.7,11.7,28.3,11.7H496v-336H464z M448,115.1v288H275.6c6.5-5.9,13.3-11.5,20.4-16.7v0.7h136v-16H319.6
	c10.9-6.2,22.2-11.5,33.9-16H432v-16h-8v-224H448z M264,366.4l4.1-4.1c37.8-37.7,86.9-62,139.9-69v31.8c-53.8,6.7-104.2,30.2-144,67
	V366.4z M408,277.2c-53.8,6.7-104.2,30.1-144,67v-25.7l4.1-4.1c37.8-37.7,86.9-62,139.9-69V277.2z M362.6,47.8
	c14.8-5,30-8.5,45.4-10.6v191.9c-53.8,6.7-104.2,30.1-144,67V110.4l4.1-4.1C294.7,79.8,327,59.8,362.6,47.8z M248,115.1v288H64v-288
	H248z M226.7,435.1H32v-304h16v288h200v4.7l-4.3,4.3C239.2,432.6,233.1,435.1,226.7,435.1L226.7,435.1z M480,435.1H285.3
	c-6.4,0-12.5-2.5-17-7l-9-9H464v-288h16V435.1z"/>
<path d="M385.8,194.9l6.2-1.4V63.4l-9.8,2.2c-38.5,8.9-74.6,26.4-105.3,51.3l-3,2.4v134.3l13-10.6
	C315.8,219.7,349.6,203.2,385.8,194.9L385.8,194.9z M289.9,127c25.5-20,54.8-34.7,86.1-43.3v97.1c-30.9,7.9-60.1,21.5-86.1,39.9V127
	z"/>
<path d="M80,131.1h152v16H80V131.1z"/>
<path d="M80,253.1h152v-96H80V253.1z M98,176.1h114v60H98V176.1z"/>
<path d="M80,362.1h152v-96H80V362.1z M98,285.1h114v60H98V285.1z"/>
<path d="M80,372.1h152v16H80V372.1z"/>
</svg>
