<?xml version="1.0" encoding="utf-8"?>
<!-- Generator: Adobe Illustrator 22.0.1, SVG Export Plug-In . SVG Version: 6.00 Build 0)  -->
<svg version="1.1" id="Capa_1" xmlns="http://www.w3.org/2000/svg" xmlns:xlink="http://www.w3.org/1999/xlink" x="0px" y="0px"
	 viewBox="74.3 0 117.6 153.1" style="enable-background:new 74.3 0 117.6 153.1;" xml:space="preserve">
<g>
	<g>
		<path d="M189.4,0H77.1c-1.4,0-2.6,1.1-2.6,2.6v148c0,1.4,1.1,2.6,2.6,2.6h112.3c1.4,0,2.6-1.1,2.6-2.6V2.6
			C191.9,1.1,190.8,0,189.4,0z M186.8,148H79.7V5.1h107.1V148z"/>
	</g>
</g>
<g>
	<g>
		<path d="M177.2,89.3c-3.9-4.8-9.7-7.7-15.9-7.7c-11.3,0-20.4,9.1-20.4,20.4c0,6.2,2.8,12.1,7.7,15.9v22.4c0,1.4,1.1,2.6,2.6,2.6
			c0.6,0,1.1-0.2,1.5-0.5l8.7-6.5l8.7,6.5c1.1,0.8,2.7,0.6,3.6-0.5c0.3-0.4,0.5-1,0.5-1.5V118C182.8,110.9,184.3,98.1,177.2,89.3z
			 M168.9,135.2l-6.1-4.6c-0.9-0.7-2.2-0.7-3.1,0l-6.1,4.6V121c4.9,2,10.4,2,15.3,0V135.2z M161.3,117.4c-8.5,0-15.3-6.9-15.3-15.3
			s6.9-15.3,15.3-15.3c8.5,0,15.3,6.9,15.3,15.3C176.6,110.5,169.7,117.3,161.3,117.4z"/>
	</g>
</g>
<g>
	<g>
		<rect x="115.4" y="15.3" width="35.7" height="5.1"/>
	</g>
</g>
<g>
	<g>
		<rect x="123" y="25.5" width="20.4" height="5.1"/>
	</g>
</g>
<g>
	<g>
		<rect x="89.9" y="38.3" width="84.2" height="5.1"/>
	</g>
</g>
<g>
	<g>
		<rect x="89.9" y="48.5" width="84.2" height="5.1"/>
	</g>
</g>
<g>
	<g>
		<rect x="89.9" y="58.7" width="84.2" height="5.1"/>
	</g>
</g>
<g>
	<g>
		<rect x="89.9" y="68.9" width="84.2" height="5.1"/>
	</g>
</g>
<g>
	<g>
		<rect x="89.9" y="79.1" width="43.4" height="5.1"/>
	</g>
</g>
<g>
	<g>
		<rect x="92.4" y="109.7" width="15.3" height="5.1"/>
	</g>
</g>
<g>
	<g>
		<rect x="92.4" y="119.9" width="15.3" height="5.1"/>
	</g>
</g>
<g>
	<g>
		<rect x="92.4" y="130.1" width="15.3" height="5.1"/>
	</g>
</g>
</svg>
