<?xml version="1.0" encoding="utf-8"?>
<!-- Generator: Adobe Illustrator 22.0.1, SVG Export Plug-In . SVG Version: 6.00 Build 0)  -->
<svg version="1.1" id="Capa_1" xmlns="http://www.w3.org/2000/svg" xmlns:xlink="http://www.w3.org/1999/xlink" x="0px" y="0px"
	 viewBox="56.7 2.5 153.3 148" style="enable-background:new 56.7 2.5 153.3 148;" xml:space="preserve">
<g>
	<g>
		<path d="M186.8,51.2C186.8,51.2,186.8,51.2,186.8,51.2H58.9c-1.2,0-2.2,1-2.2,2.2c0,0,0,0,0,0v61.4c0,1.2,1,2.2,2.2,2.2
			c0,0,0,0,0,0h86.9c1.2,0,2.2-1,2.2-2.2c0-1.2-1-2.2-2.2-2.2H61.1v-57h123.5V61c0,1.2,1,2.2,2.2,2.2c0,0,0,0,0,0
			c1.2,0,2.2-1,2.2-2.2c0,0,0,0,0,0v-7.7C188.9,52.1,188,51.2,186.8,51.2z"/>
	</g>
</g>
<g>
	<g>
		<path d="M171.9,41L69.6,18c-0.6-0.1-1.2,0-1.7,0.3c-0.5,0.3-0.8,0.8-1,1.4l-5.1,23c-0.3,1.2,0.5,2.4,1.7,2.6
			c1.2,0.3,2.4-0.5,2.6-1.7l4.6-20.9l100.1,22.5c0.2,0,0.3,0.1,0.5,0.1c1.2,0,2.2-1,2.2-2.2C173.6,42.1,172.9,41.2,171.9,41z"/>
	</g>
</g>
<g>
	<g>
		<path d="M159.5,28.3L98.1,2.7c-1.1-0.4-2.3,0-2.8,1L90.2,14c-0.6,1.1-0.2,2.4,0.9,3c1.1,0.6,2.4,0.2,3-0.9c0,0,0-0.1,0.1-0.1v0
			l4.2-8.4l59.5,24.8c1.1,0.5,2.4-0.1,2.9-1.2C161.1,30,160.6,28.8,159.5,28.3z"/>
	</g>
</g>
<g>
	<g>
		<path d="M161,61.4h-20.3c-1.2,0-2.2,1-2.2,2.2c0,1.2,1,2.2,2.2,2.2H161c1.2,0,2.2-1,2.2-2.2C163.2,62.4,162.2,61.4,161,61.4z"/>
	</g>
</g>
<g>
	<g>
		<path d="M120.3,61.5c-12.4,0-22.5,10.1-22.5,22.5c0,12.4,10.1,22.5,22.5,22.5c12.4,0,22.5-10.1,22.5-22.5
			C142.8,71.6,132.7,61.5,120.3,61.5z M120.3,102.4c-10.2,0-18.4-8.2-18.4-18.4c0-10.2,8.2-18.4,18.4-18.4
			c10.2,0,18.4,8.2,18.4,18.4C138.7,94.2,130.4,102.4,120.3,102.4z"/>
	</g>
</g>
<g>
	<g>
		<path d="M181.6,68.7c-13.6,0-28.1,3.2-28.1,10.2v61.4c0,7,14.6,10.2,28.1,10.2c13.6,0,28.1-3.2,28.1-10.2V78.9
			C209.8,71.9,195.2,68.7,181.6,68.7z M204.6,140.3c-0.4,1.4-8.1,5.2-23,5.2c-15,0-22.6-3.7-23-5.1v-4c5.4,2.7,14.4,4,23,4
			c8.6,0,17.6-1.3,23-4V140.3z M204.6,130c-0.4,1.4-8.1,5.2-23,5.2c-15,0-22.6-3.7-23-5.1v-4c5.4,2.7,14.4,4,23,4
			c8.6,0,17.6-1.3,23-4V130z M204.6,119.8c-0.4,1.4-8.1,5.2-23,5.2c-15,0-22.6-3.7-23-5.1v-4c5.4,2.7,14.4,4,23,4
			c8.6,0,17.6-1.3,23-4V119.8z M204.6,109.6c-0.4,1.4-8.1,5.2-23,5.2c-15,0-22.6-3.7-23-5.1v-4c5.4,2.7,14.4,4,23,4
			c8.6,0,17.6-1.3,23-4V109.6z M204.6,99.3c-0.4,1.4-8.1,5.2-23,5.2c-15,0-22.6-3.7-23-5.1v-4c5.4,2.7,14.4,4,23,4
			c8.6,0,17.6-1.3,23-4V99.3z M204.6,89.1c-0.4,1.4-8.1,5.2-23,5.2c-15,0-22.6-3.7-23-5.1v-4c5.4,2.7,14.4,4,23,4
			c8.6,0,17.6-1.3,23-4V89.1z M181.6,84c-14.9,0-22.6-3.7-23-5.1v0c0.4-1.4,8.1-5.1,23-5.1c14.8,0,22.5,3.7,23,5.1
			C204.1,80.4,196.5,84,181.6,84z"/>
	</g>
</g>
<g>
	<g>
		<path d="M99.8,102.3H80.5l-9.2-10V75.6l10.1-9.9h18.4c1.2,0,2.2-1,2.2-2.2c0-1.2-1-2.2-2.2-2.2H80.5c-0.6,0-1.1,0.2-1.5,0.6
			L67.6,73.1c-0.4,0.5-0.7,1.1-0.7,1.8v18.2c0,0.5,0.2,1.1,0.6,1.5L77.9,106c0.4,0.5,1,0.7,1.6,0.7h20.3c1.2,0,2.2-1,2.2-2.2
			C102,103.3,101,102.3,99.8,102.3z"/>
	</g>
</g>
</svg>
