<?xml version="1.0" encoding="utf-8"?>
<!-- Generator: Adobe Illustrator 22.0.1, SVG Export Plug-In . SVG Version: 6.00 Build 0)  -->
<svg version="1.1" id="Capa_1" xmlns="http://www.w3.org/2000/svg" xmlns:xlink="http://www.w3.org/1999/xlink" x="0px" y="0px"
	 viewBox="56.3 10.5 153.5 132.1" style="enable-background:new 56.3 10.5 153.5 132.1;" xml:space="preserve">
<g>
	<g>
		<g>
			<path d="M209,72.2l-39.6-39.6l16.7-18.1c1-1,0.9-2.6-0.1-3.6c-1-1-2.6-0.9-3.6,0.1c0,0,0,0-0.1,0.1L164,30.9l-17.8,17.8
				c-1,1-1,2.6,0,3.6l1.2,1.2l-7,6.7c-0.5,0.5-1.1,0.7-1.8,0.7h-10.5c-0.3,0-0.5,0-0.8,0.1l-8.5-9.8l1.4-1.4c1-1,1-2.6,0-3.6
				l-17.8-17.8L86.6,11.1c-1-1-2.6-1.1-3.6-0.2c-1,1-1.1,2.6-0.2,3.6L97.1,30L57.4,69.6c-1,1-1,2.6,0,3.6l17.9,17.9c1,1,2.6,1,3.6,0
				l0.7-0.7L91,101.7l-1.7,1.6c-3.3,3.1-3.5,8.3-0.4,11.7c0.1,0.1,0.3,0.3,0.4,0.4c1.7,1.6,3.9,2.4,6.2,2.4h0c0,2.3,1,4.4,2.6,5.9
				c1.7,1.6,3.9,2.4,6.2,2.4h0c0,2.3,1,4.4,2.6,5.9c1.7,1.6,3.9,2.4,6.2,2.4h0c0,2.3,1,4.4,2.6,5.9c3.5,3.2,8.8,3.2,12.3,0l2.2-2.1
				l2.1,2.1c1.7,1.6,3.9,2.4,6.1,2.4c4.8,0,8.8-3.7,9.1-8.5c2.3,0,4.6-1,6.2-2.6c1.7-1.5,2.6-3.7,2.6-6c2.4,0,4.7-0.9,6.4-2.6
				c1.6-1.5,2.6-3.7,2.6-5.9c0,0,0,0,0.1,0c2.3,0,4.4-0.8,6.1-2.4c1.6-1.5,2.6-3.7,2.6-5.9c0-2.3-1-4.5-2.6-6.1l-0.1-0.1l13-12.4
				l3.2,3.2c1,1,2.6,1,3.6,0L209,75.8C210,74.8,210,73.2,209,72.2z M77.1,85.7L62.9,71.5l37.8-37.8l14.3,14.3L77.1,85.7z M98,111.7
				c-1.5,1.4-3.8,1.4-5.3,0c-1.3-1.2-1.4-3.2-0.2-4.5c0.1-0.1,0.1-0.1,0.2-0.2l10.3-9.8c1.5-1.4,3.8-1.4,5.3,0
				c1.3,1.2,1.4,3.2,0.2,4.5c-0.1,0.1-0.1,0.1-0.2,0.2L98,111.7z M106.9,120c-1.5,1.4-3.8,1.4-5.3,0c-1.3-1.2-1.4-3.2-0.2-4.5
				c0.1-0.1,0.1-0.1,0.2-0.2l10.3-9.8c1.5-1.4,3.8-1.4,5.3,0c1.3,1.2,1.4,3.2,0.2,4.5c-0.1,0.1-0.1,0.1-0.2,0.2L106.9,120z
				 M115.7,128.4c-1.5,1.4-3.8,1.4-5.3,0c-1.3-1.2-1.4-3.2-0.2-4.5c0.1-0.1,0.1-0.1,0.2-0.2l10.3-9.8c1.5-1.4,3.8-1.4,5.3,0
				c1.3,1.2,1.4,3.2,0.2,4.5c-0.1,0.1-0.1,0.1-0.2,0.2L115.7,128.4z M124.5,136.8c-1.5,1.4-3.8,1.4-5.3,0c-1.3-1.2-1.4-3.2-0.2-4.5
				c0.1-0.1,0.1-0.1,0.2-0.2l10.3-9.8c1.5-1.4,3.8-1.4,5.3,0c1.3,1.2,1.4,3.2,0.2,4.5c-0.1,0.1-0.1,0.1-0.2,0.2L124.5,136.8z
				 M141.1,136.7L141.1,136.7c-1.5,1.4-3.8,1.5-5.3,0.2l-1.9-2l4.4-4.2c0.4-0.4,0.7-0.7,1-1.1l2.4,2.4c0.5,0.5,0.8,1.2,0.8,1.9
				C142.4,134.9,141.9,136,141.1,136.7z M168,111.2c-1.5,1.4-3.8,1.3-5.2-0.1l-7.9-7.5c-1-1-2.6-0.9-3.6,0.1c-1,1-0.9,2.6,0.1,3.6
				l7.9,7.5c0.6,0.6,1,1.4,1,2.3c0,1-0.5,1.9-1.2,2.5c-1.5,1.4-3.8,1.4-5.3,0l-7.2-6.8c-1-1-2.6-0.9-3.6,0.1c-1,1-0.9,2.6,0.1,3.6
				l7.2,6.8c0.6,0.6,1,1.4,1,2.3c0,1-0.5,1.9-1.2,2.5c-1.3,1.4-3.4,1.4-4.7,0.2c0,0-0.1,0-0.1-0.1l-2.6-2.6l-1.9-1.9
				c-0.2-2-1.1-3.9-2.6-5.3c-1.7-1.6-3.9-2.4-6.2-2.4c0-2.3-1-4.4-2.6-5.9c-1.7-1.6-3.9-2.4-6.2-2.4c0-2.3-1-4.4-2.6-5.9
				c-1.7-1.6-3.9-2.4-6.2-2.4c0-2.3-1-4.4-2.6-5.9c-3.5-3.2-8.8-3.2-12.3,0l-4.8,4.6L83.3,86.8l32-32l7.4,8.5l-9.7,9.2
				c-2.7,2.5-2.8,6.7-0.3,9.3c0.1,0.1,0.2,0.2,0.3,0.3c2.7,2.5,6.7,2.6,9.5,0.2l11.3-6.6c1-0.6,2.3-0.4,3.1,0.4l22.5,22.2
				c0.1,0.3,0.3,0.5,0.5,0.7l6.1,5.8l1.7,1.7l0,0l0.2,0.2c0.7,0.6,1,1.5,1.1,2.4C168.9,109.8,168.6,110.7,168,111.2z M167.7,99.3
				l-27.3-26.9c-2.5-2.4-6.3-2.9-9.3-1.1L119.6,78l-0.5,0.3c-0.8,0.7-1.9,0.7-2.7,0c-0.6-0.6-0.7-1.5-0.1-2.1c0,0,0.1-0.1,0.1-0.1
				l9.9-9.4c0.5-0.5,1.1-0.7,1.8-0.7h10.5c2,0,3.8-0.7,5.3-2.1l7.1-6.7l29.6,29.9L167.7,99.3z M189.4,88.3l-37.8-37.8l14.3-14.3
				L203.6,74L189.4,88.3z"/>
		</g>
	</g>
	<g>
		<g>
			<path d="M77.1,66.3c2.8,0,5.1,2.3,5.1,5.1c0,2.8-2.3,5.1-5.1,5.1c-2.8,0-5.1-2.3-5.1-5.1C72,68.6,74.3,66.3,77.1,66.3z"/>
		</g>
	</g>
	<g>
		<g>
			<path d="M189.4,68.9c2.8,0,5.1,2.3,5.1,5.1c0,2.8-2.3,5.1-5.1,5.1c-2.8,0-5.1-2.3-5.1-5.1C184.2,71.2,186.5,68.9,189.4,68.9z"/>
		</g>
	</g>
</g>
</svg>
