<?xml version="1.0" encoding="utf-8"?>
<!-- Generator: Adobe Illustrator 15.0.2, SVG Export Plug-In . SVG Version: 6.00 Build 0)  -->
<!DOCTYPE svg PUBLIC "-//W3C//DTD SVG 1.1//EN" "http://www.w3.org/Graphics/SVG/1.1/DTD/svg11.dtd">
<svg version="1.1" id="Capa_1" xmlns="http://www.w3.org/2000/svg" xmlns:xlink="http://www.w3.org/1999/xlink" x="0px" y="0px"
	 width="266.46px" height="153.07px" viewBox="0 0 266.46 153.07" enable-background="new 0 0 266.46 153.07" xml:space="preserve">
<g>
	<g>
		<path d="M166.55,7.245c-1.192,0.497-1.97,1.658-1.97,2.945v34.933H44.883c-1.76,0-3.188,1.429-3.188,3.188v51.006
			c0,1.76,1.429,3.188,3.188,3.188h119.697v35.066c0,1.287,0.777,2.449,1.964,2.945c1.192,0.492,2.563,0.225,3.475-0.688
			l63.809-63.599c0.6-0.599,0.938-1.409,0.938-2.257s-0.338-1.658-0.931-2.257L170.026,7.934
			C169.113,7.022,167.743,6.747,166.55,7.245z"/>
	</g>
</g>
</svg>
