<svg xmlns="http://www.w3.org/2000/svg" viewBox="0 0 115 65"><defs><style>.cls-1{fill:#ed1c24;fill-rule:evenodd;}</style></defs><title>002</title><g id="Слой_2" data-name="Слой 2"><g id="Icons"><g id="_002" data-name="002"><g id="Icon"><path class="cls-1" d="M28,52.85h3.34V49.49H28ZM102.37,56h8.07L115,47.48V31.77h-3.34v6.15H107v3.35h4.63v5.36l-3.22,6h-5.2a12.13,12.13,0,0,0,.1-1.48,12.49,12.49,0,1,0-25,0,12.13,12.13,0,0,0,.1,1.48H42.08a12.13,12.13,0,0,0,.1-1.48,12.49,12.49,0,1,0-25,0,12.13,12.13,0,0,0,.1,1.48H4.18V49H8.25v-7.7h5.56V37.92H8.25v-.75c0-3.1,1.82-3.64,2.34-3.73h20L42.93,17.12c2.2-2.9,4.8-2.57,5-2.54l.13,0H82V11.26H48.4a8.79,8.79,0,0,0-8.12,3.83l-11.36,15H10.31c-1.87.18-5.4,1.89-5.4,7.08v8.44H.85V56H18.17a12.57,12.57,0,0,0,4.64,5.64H0V65H114.91V61.64H97.72A12.53,12.53,0,0,0,102.37,56ZM29.69,60.37a9.21,9.21,0,1,1,9.15-9.2A9.18,9.18,0,0,1,29.69,60.37Zm6.87,1.27A12.53,12.53,0,0,0,41.21,56H79.33A12.57,12.57,0,0,0,84,61.64Zm54.29-1.27a9.21,9.21,0,1,1,9.15-9.2A9.18,9.18,0,0,1,90.85,60.37Zm-1.67-7.52h3.34V49.49H89.18ZM41.79,33.44H86.64V30.09H41.79ZM98.9,34.58l1,.59.87.53,1.21-.74c6.33-3.86,12.87-7.85,12.87-14.46V2.76l-1.28-.3-2.27-.57C107.75,1,103.77,0,100.54,0A42.21,42.21,0,0,0,90.27,1.78l-2.72.68-1.28.31V20.5C86.27,26.92,92.69,30.82,98.9,34.58ZM89.61,5.4,91.09,5a39.36,39.36,0,0,1,9.45-1.67c2.81,0,6.58.95,9.91,1.79l1,.26V20.5c0,4.57-5.38,8-10.75,11.27l-.11-.06c-5.41-3.29-11-6.69-11-11.21Zm16.56,9L103.81,12l-4.29,4.31-1.87-1.89-2.36,2.37,4.23,4.27Z"/></g></g></g></g></svg>