<svg xmlns="http://www.w3.org/2000/svg" viewBox="0 0 120 55"><defs><style>.cls-1{fill:#ccc;fill-rule:evenodd;}</style></defs><title>001</title><g id="Слой_2" data-name="Слой 2"><g id="Icons"><g id="_001" data-name="001"><g id="Icon"><path class="cls-1" d="M42.9,25.48l37.81-.57,0-3.38-37.81.56Zm48.93-1.79A11.72,11.72,0,0,0,98,22l10.84,10.9,2.38-2.4L100.57,19.79a11.78,11.78,0,1,0-8.74,3.9Zm0-20.31a8.47,8.47,0,1,1-8.43,8.47A8.46,8.46,0,0,1,91.83,3.38Zm25,22.12-.11-5.45-1.72.07a14.72,14.72,0,0,1-7.11-1.68l-1.71,2.92a17,17,0,0,0,7.24,2.09l.07,3.61.62.5s2.55,2.16,2.55,6.94c0,2.19-1.72,7.29-2.75,10.06h-3.73a10.74,10.74,0,0,0,.21-2.06,10.11,10.11,0,1,0-20.22,0,10,10,0,0,0,.21,2.06H32.83A10,10,0,0,0,33,42.5a10.11,10.11,0,1,0-20.22,0A10,10,0,0,0,13,44.56H3.46V37.33H6.65V33.94H4.11c.71-1.22,2.19-2.73,5.3-3.75C16.73,27.8,34,24.07,34.15,24l.22-.05L52.7,14.21A122.21,122.21,0,0,1,74.77,12.6l0-3.39a121.69,121.69,0,0,0-23,1.73l-.24.05L33.21,20.77C31,21.24,15.48,24.65,8.37,27,.29,29.61.09,35.36.09,35.91V48H14.42a10.14,10.14,0,0,0,4.1,3.66H0V55H116.07V51.61h-11.4A10.17,10.17,0,0,0,108.76,48h7.43l.42-1.07C117,46,120,38.11,120,34.5A13,13,0,0,0,116.8,25.5ZM16.19,42.5a6.74,6.74,0,1,1,6.74,6.76A6.76,6.76,0,0,1,16.19,42.5Zm11.16,9.11A10.14,10.14,0,0,0,31.45,48H91.74a10.11,10.11,0,0,0,4.09,3.66Zm72.9-2.35A6.77,6.77,0,1,1,107,42.5,6.75,6.75,0,0,1,100.25,49.26Zm-79-5.07h3.37V40.8H21.25Zm77.31,0h3.37V40.8H98.56Z"/></g></g></g></g></svg>