<svg xmlns="http://www.w3.org/2000/svg" viewBox="0 0 180 68"><defs><style>.cls-1{fill:#cfcfcf;fill-rule:evenodd;}</style></defs><title>003</title><g id="Слой_2" data-name="Слой 2"><g id="Icons"><g id="_003" data-name="003"><g id="Shape_1" data-name="Shape 1"><path class="cls-1" d="M36.73,41.84H24.58v3.62H36.73ZM15.86,58.09h3.63V54.47H15.86Zm56.79,0h3.63V54.51H72.65Zm20,0h3.64V54.51H92.62Zm29.47,0h3.63V54.51h-3.63Zm20,0h3.63V54.51h-3.63Zm31.68-1.81a10,10,0,0,0-20,0A9.81,9.81,0,0,0,158,64.38h-8.51a9.82,9.82,0,0,0,4.26-8.06,10,10,0,0,0-20,0A9.81,9.81,0,0,0,138,64.38h-8.5a10,10,0,1,0-11.48,0h-18a9.82,9.82,0,0,0,4.26-8.06A10,10,0,1,0,88.6,64.38H80.1a10,10,0,1,0-11.47,0H23.35a9.8,9.8,0,0,0,4.32-8.1,10,10,0,0,0-20,0A9.82,9.82,0,0,0,12,64.38H0V68H179.8V64.38H169.49A9.81,9.81,0,0,0,173.74,56.32ZM17.68,62.51A6.24,6.24,0,1,1,24,56.28,6.3,6.3,0,0,1,17.68,62.51Zm56.68.05a6.24,6.24,0,1,1,6.36-6.24A6.31,6.31,0,0,1,74.36,62.56Zm20,0a6.24,6.24,0,1,1,6.35-6.24A6.31,6.31,0,0,1,94.34,62.56Zm29.46,0a6.24,6.24,0,1,1,6.36-6.24A6.31,6.31,0,0,1,123.8,62.56Zm20,0a6.24,6.24,0,1,1,6.35-6.24A6.31,6.31,0,0,1,143.78,62.56Zm20,0a6.24,6.24,0,1,1,6.35-6.24A6.31,6.31,0,0,1,163.76,62.56ZM162,58.13h3.63V54.51H162ZM64.78,0V44.66H180V0ZM176.37,41h-108V3.62h108ZM163.65,32H74.26V35.6h89.39ZM3.63,42.13,18.74,37,31.82,24.14h8.34V54.51H30.67v3.62H60.34V5.25l-2.16.41a27.5,27.5,0,0,0-7.79,3.06,20.67,20.67,0,0,0-9.81,11.8H30.33L16.78,33.82,0,39.54V58.33H3.63ZM43.79,22.57a16.69,16.69,0,0,1,8.33-10.66A25.08,25.08,0,0,1,56.7,9.83V54.51H43.79Z"/></g></g></g></g></svg>