<?xml version="1.0" encoding="utf-8"?>
<!-- Generator: Adobe Illustrator 15.0.2, SVG Export Plug-In . SVG Version: 6.00 Build 0)  -->
<!DOCTYPE svg PUBLIC "-//W3C//DTD SVG 1.1//EN" "http://www.w3.org/Graphics/SVG/1.1/DTD/svg11.dtd">
<svg version="1.1" id="Capa_1" xmlns="http://www.w3.org/2000/svg" xmlns:xlink="http://www.w3.org/1999/xlink" x="0px" y="0px"
	 width="512px" height="512px" viewBox="0 0 512 512" enable-background="new 0 0 512 512" xml:space="preserve">
<g>
	<path fill="#231F20" d="M483.708,0.013H28.258C12.662,0.013,0,12.649,0,28.271v455.45c0,15.621,12.662,28.275,28.258,28.275
		h245.201V313.726h-66.717v-77.279h66.717v-56.988c0-66.118,40.372-102.141,99.367-102.141c28.283,0,52.536,2.116,59.609,3.035
		v69.111l-40.92,0.017c-32.077,0-38.265,15.25-38.265,37.616v49.325h76.529l-10.007,77.271h-66.531v198.278h130.457
		c15.613,0,28.284-12.671,28.284-28.25V28.254C511.975,12.649,499.321,0.013,483.708,0.013z"/>
</g>
</svg>
