<?xml version="1.0" encoding="utf-8"?>
<!-- Generator: Adobe Illustrator 15.0.2, SVG Export Plug-In . SVG Version: 6.00 Build 0)  -->
<!DOCTYPE svg PUBLIC "-//W3C//DTD SVG 1.1//EN" "http://www.w3.org/Graphics/SVG/1.1/DTD/svg11.dtd">
<svg version="1.1" id="Слой_1" xmlns="http://www.w3.org/2000/svg" xmlns:xlink="http://www.w3.org/1999/xlink" x="0px" y="0px"
	 width="90px" height="90px" viewBox="0 0 90 90" enable-background="new 0 0 90 90" xml:space="preserve">
<g transform="translate(0.000000,90.000000) scale(0.100000,-0.100000)">
	<path d="M205,741.001c-22.002-10-56.001-36.001-76.001-58.003c-70-77.998-76.001-160.996-17.998-260
		C146.001,362.998,427.998,70,450,70s304.004,292.998,339.004,352.998c40.996,71.001,50,131.001,26.992,191.001
		c-30,77.002-125,146.001-202.998,146.001c-37.002,0-105-30-140-62.998l-22.998-20l-22.002,20
		C362.002,757.002,277.998,772.998,205,741.001z M347.002,648.999c23.999-11.001,55.996-36.997,71.997-56.001l28.999-35.996
		l32.998,36.997C517.998,636.001,577.002,670,615,670c65.996,0,125-58.999,125-125c0-33.999-9.004-56.001-42.002-105.996
		c-40-60-230-259.004-246.997-259.004c-15,0-230,227.002-260,275c-51.001,81.001-40,152.002,32.998,196.001
		C263.999,675,292.998,675,347.002,648.999z"/>
</g>
</svg>
