<svg viewBox="0 0 13 13" fill="none" xmlns="http://www.w3.org/2000/svg">
	<path d="M6.14311 12.8697C6.24303 12.9539 6.3695 13 6.50016 13C6.63083 13 6.75728 12.9538 6.85716 12.8695C7.87724 12.0114 12.9677 7.53371 13 3.64495C13.0017 3.16736 12.9092 2.69413 12.7278 2.25233C12.5464 1.81053 12.2797 1.40885 11.9429 1.07028C11.606 0.731715 11.2057 0.462909 10.7648 0.279255C10.324 0.0956004 9.85119 0.000704578 9.3736 0C8.81837 0.000355267 8.27061 0.128042 7.77245 0.373242C7.2743 0.618441 6.83901 0.974621 6.50007 1.41439C6.18479 1.00439 5.78539 0.666652 5.3287 0.423885C4.87201 0.181117 4.36864 0.0389503 3.85242 0.00694464C3.33621 -0.025061 2.81913 0.0538366 2.33595 0.238332C1.85277 0.422827 1.4147 0.708642 1.05119 1.07656C0.71394 1.41328 0.447267 1.81392 0.266792 2.255C0.0863175 2.69609 -0.0043299 3.16874 0.000158917 3.6453C0.0327401 7.53357 5.1229 12.0114 6.14311 12.8697ZM1.56395 1.58507C1.88278 1.26225 2.27287 1.01868 2.70288 0.873913C3.1329 0.729144 3.59087 0.687212 4.04002 0.751481C4.48918 0.81575 4.91701 0.98443 5.28917 1.24398C5.66133 1.50353 5.96745 1.84672 6.18296 2.246L6.326 2.50857C6.34305 2.53985 6.36821 2.56596 6.39884 2.58416C6.42947 2.60235 6.46444 2.61196 6.50007 2.61196C6.53569 2.61196 6.57066 2.60235 6.60129 2.58416C6.63193 2.56596 6.65709 2.53985 6.67413 2.50857L6.81717 2.246C7.03267 1.84673 7.33879 1.50354 7.71094 1.244C8.08309 0.984447 8.51091 0.815764 8.96006 0.751488C9.40921 0.687213 9.86717 0.729135 10.2972 0.873889C10.7272 1.01864 11.1173 1.2622 11.4361 1.585C11.7059 1.85417 11.9194 2.17447 12.0639 2.52714C12.2084 2.87981 12.2811 3.25776 12.2777 3.63888C12.2488 7.12316 7.45251 11.4085 6.50007 12.2252C5.5477 11.4084 0.751584 7.12302 0.722387 3.63923C0.718999 3.25808 0.791685 2.88008 0.936189 2.52736C1.08069 2.17464 1.29411 1.85429 1.56395 1.58507Z" fill="#bbb"></path>
</svg>