<?xml version="1.0" encoding="utf-8"?>
<!-- Generator: Adobe Illustrator 15.0.2, SVG Export Plug-In . SVG Version: 6.00 Build 0)  -->
<!DOCTYPE svg PUBLIC "-//W3C//DTD SVG 1.1//EN" "http://www.w3.org/Graphics/SVG/1.1/DTD/svg11.dtd">
<svg version="1.1" id="Layer_1" xmlns="http://www.w3.org/2000/svg" xmlns:xlink="http://www.w3.org/1999/xlink" x="0px" y="0px"
	 width="512px" height="512px" viewBox="0 0 512 512" enable-background="new 0 0 512 512" xml:space="preserve">
<g>
	<path d="M426,495.983H86c-25.364,0-46-20.636-46-46V207.963c0-8.836,7.163-16,16-16s16,7.164,16,16v242.021c0,7.72,6.28,14,14,14
		h340c7.72,0,14-6.28,14-14V207.963c0-8.836,7.163-16,16-16s16,7.164,16,16v242.021C472,475.347,451.365,495.983,426,495.983z"/>
	<path d="M496,263.958c-4.095,0-8.189-1.562-11.313-4.687L285.698,60.284c-16.375-16.376-43.02-16.376-59.396,0L27.314,259.271
		c-6.248,6.25-16.379,6.25-22.627,0c-6.249-6.248-6.249-16.378,0-22.626L203.675,37.656c28.852-28.852,75.8-28.852,104.65,0
		l198.988,198.988c6.249,6.249,6.249,16.379,0,22.627C504.19,262.396,500.095,263.958,496,263.958L496,263.958z"/>
	<path d="M320,495.983H192c-8.837,0-16-7.164-16-16v-142c0-27.57,22.43-50.001,50-50.001h60c27.57,0,50,22.431,50,50.001v142
		C336,488.819,328.837,495.983,320,495.983z M208,463.983h96v-126c0-9.926-8.075-18-18-18h-60c-9.925,0-18,8.074-18,18V463.983z"/>
</g>
</svg>
