<?xml version="1.0" encoding="iso-8859-1"?>
<!-- Generator: Adobe Illustrator 19.0.0, SVG Export Plug-In . SVG Version: 6.00 Build 0)  -->
<svg version="1.1" id="Layer_1" xmlns="http://www.w3.org/2000/svg" xmlns:xlink="http://www.w3.org/1999/xlink" x="0px" y="0px"
	 viewBox="0 0 512 512" style="enable-background:new 0 0 512 512;" xml:space="preserve">
<g>
	<g>
		<path d="M511.878,24.411v-0.123c0-0.244-0.122-0.366-0.244-0.61v-0.122c-0.366-0.854-1.098-1.587-1.953-1.953
			c-0.488-0.244-0.976-0.366-1.464-0.366c-0.244,0-0.488,0-0.732,0c0,0,0,0-0.122,0c-0.244,0-0.366,0.122-0.61,0.122
			c0,0,0,0-0.122,0c-0.244,0.122-0.488,0.122-0.61,0.244c0,0-0.122,0-0.122,0.122L2.197,283.767C0.854,284.499,0,285.963,0,287.55
			c0.122,1.587,1.098,2.929,2.563,3.539l148.291,55.655l48.576,141.334c0,0,0,0.122,0.122,0.122c0,0.122,0,0.122,0.122,0.244
			s0.122,0.366,0.244,0.488l0.122,0.122c0.122,0.122,0.244,0.366,0.366,0.488s0.366,0.366,0.61,0.488c0,0,0.122,0,0.122,0.122
			c0.122,0.122,0.244,0.122,0.366,0.244c0.122,0,0.122,0.122,0.244,0.122s0.244,0.122,0.366,0.122s0.244,0,0.366,0.122
			c0.122,0,0.122,0,0.244,0c0.244,0,0.366,0,0.61,0c0.122,0,0.244,0,0.244,0c0.488,0,0.976-0.244,1.464-0.366
			c0.122,0,0.122-0.122,0.244-0.122c0.244-0.122,0.488-0.244,0.732-0.488c0.244-0.244,0.366-0.488,0.61-0.732c0,0,0,0,0-0.122
			l52.725-79.821c1.22-1.831,0.732-4.271-1.098-5.492c-1.831-1.22-4.271-0.732-5.492,1.098l-41.741,63.222l18.795-99.959
			l196.989,82.505c1.098,0.488,2.319,0.366,3.417-0.122c1.098-0.61,1.831-1.587,2.075-2.807L512,26.12v-0.122
			c0-0.122,0-0.244,0-0.366s0-0.244,0-0.488c0-0.122,0-0.122,0-0.244S512,24.533,511.878,24.411z M13.792,286.696L481.976,43.329
			L153.173,338.934L13.792,286.696z M223.717,359.682c-0.244,0.244-0.488,0.61-0.61,0.976c0,0,0,0,0,0.122
			c-0.122,0.244-0.244,0.488-0.244,0.854l-20.626,109.357l-43.572-126.2L469.16,65.663L223.717,359.682z M425.344,441.211
			L233.238,360.78L501.259,39.789L425.344,441.211z"/>
	</g>
</g>
<g>
	<g>
		<path d="M464.156,120.097c-2.197-0.366-4.271,0.976-4.638,3.173l-5.736,30.513c-0.365,2.076,1.099,4.272,3.174,4.638
			c0.244,0,0.488,0.122,0.732,0.122c1.831,0,3.539-1.342,3.905-3.295l5.736-30.513C467.695,122.538,466.353,120.464,464.156,120.097
			z"/>
	</g>
</g>
<g>
	<g>
		<path d="M452.805,181.001c-2.197-0.366-4.271,0.976-4.638,3.173l-43.206,228.6c-0.487,2.197,0.855,4.272,3.052,4.638
			c0.244,0,0.488,0.122,0.732,0.122c1.831,0,3.539-1.342,3.905-3.295l43.328-228.6C456.344,183.442,455.002,181.368,452.805,181.001
			z"/>
	</g>
</g>
<g>
</g>
<g>
</g>
<g>
</g>
<g>
</g>
<g>
</g>
<g>
</g>
<g>
</g>
<g>
</g>
<g>
</g>
<g>
</g>
<g>
</g>
<g>
</g>
<g>
</g>
<g>
</g>
<g>
</g>
</svg>
