<?xml version="1.0" encoding="utf-8"?>
<!-- Generator: Adobe Illustrator 15.0.2, SVG Export Plug-In . SVG Version: 6.00 Build 0)  -->
<!DOCTYPE svg PUBLIC "-//W3C//DTD SVG 1.1//EN" "http://www.w3.org/Graphics/SVG/1.1/DTD/svg11.dtd">
<svg version="1.1" id="Capa_1" xmlns="http://www.w3.org/2000/svg" xmlns:xlink="http://www.w3.org/1999/xlink" x="0px" y="0px"
	 width="266.46px" height="153.07px" viewBox="0 0 266.46 153.07" enable-background="new 0 0 266.46 153.07" xml:space="preserve">
<g>
	<g>
		<path d="M177.19,4.285V4.269c-2.717-2.731-6.41-4.268-10.263-4.27H99.517C91.51,0.026,85.026,6.51,85,14.516v124.021
			c0.001,3.853,1.538,7.545,4.27,10.263c2.713,2.728,6.4,4.264,10.247,4.27h67.426c3.848-0.006,7.534-1.542,10.247-4.27
			c2.728-2.713,4.264-6.4,4.27-10.247V14.532C181.454,10.685,179.917,6.999,177.19,4.285z M133.23,143.219L133.23,143.219
			c-2.166,0-3.921-1.756-3.921-3.922s1.755-3.922,3.921-3.922s3.922,1.756,3.922,3.922S135.396,143.219,133.23,143.219z
			 M169.932,118.597c0,5.24-4.248,9.488-9.487,9.488H106c-5.24,0-9.488-4.248-9.488-9.488V26.171c0-5.24,4.248-9.488,9.488-9.488
			h54.46c5.24,0,9.487,4.248,9.487,9.488L169.932,118.597z"/>
	</g>
</g>
</svg>
