<?xml version="1.0" encoding="iso-8859-1"?>
<!-- Generator: Adobe Illustrator 19.0.0, SVG Export Plug-In . SVG Version: 6.00 Build 0)  -->
<svg version="1.1" id="Capa_1" xmlns="http://www.w3.org/2000/svg" xmlns:xlink="http://www.w3.org/1999/xlink" x="0px" y="0px"
	 viewBox="0 0 342.4 342.4" style="enable-background:new 0 0 342.4 342.4;" xml:space="preserve">
<g>
	<g>
		<path d="M171.2,0C76.4,0,0,76.8,0,171.2s76.8,171.2,171.2,171.2s171.2-76.8,171.2-171.2S266,0,171.2,0z M248,184.4l-50.8,29.2
			c-0.4,0-0.4,0.4-0.8,0.4l-50.8,29.2c-2.4,1.6-5.6,2.8-8.8,2.8c-8.4,0-15.6-6.8-15.6-15.6v-59.2v-59.6c0-2.8,0.8-5.2,2-7.6
			c4.4-7.2,13.6-10,21.2-5.6L196,128l51.2,29.6c2.4,1.2,4.4,3.2,6,5.6C258,170.8,255.6,180.4,248,184.4z"/>
	</g>
</g>
<g>
</g>
<g>
</g>
<g>
</g>
<g>
</g>
<g>
</g>
<g>
</g>
<g>
</g>
<g>
</g>
<g>
</g>
<g>
</g>
<g>
</g>
<g>
</g>
<g>
</g>
<g>
</g>
<g>
</g>
</svg>
