<?xml version="1.0" encoding="utf-8"?>
<!-- Generator: Adobe Illustrator 15.0.2, SVG Export Plug-In . SVG Version: 6.00 Build 0)  -->
<!DOCTYPE svg PUBLIC "-//W3C//DTD SVG 1.1//EN" "http://www.w3.org/Graphics/SVG/1.1/DTD/svg11.dtd">
<svg version="1.1" id="Capa_1" xmlns="http://www.w3.org/2000/svg" xmlns:xlink="http://www.w3.org/1999/xlink" x="0px" y="0px"
	 width="266.46px" height="153.07px" viewBox="0 0 266.46 153.07" enable-background="new 0 0 266.46 153.07" xml:space="preserve">
<g>
	<g>
		<g>
			<path d="M130.886,102.61c-4.377,0-7.92,3.647-7.92,8.024c0,4.272,3.439,8.024,7.92,8.024s8.024-3.751,8.024-8.024
				C138.91,106.258,135.263,102.61,130.886,102.61z"/>
			<path d="M132.24,41.855c-14.068,0-20.529,8.337-20.529,13.965c0,4.064,3.439,5.939,6.253,5.939c5.627,0,3.334-8.024,13.964-8.024
				c5.21,0,9.378,2.293,9.378,7.087c0,5.628-5.835,8.858-9.274,11.775c-3.022,2.605-6.982,6.878-6.982,15.841
				c0,5.418,1.459,6.981,5.731,6.981c5.107,0,6.148-2.292,6.148-4.272c0-5.419,0.105-8.545,5.836-13.026
				c2.814-2.188,11.672-9.274,11.672-19.07S145.58,41.855,132.24,41.855z"/>
			<path d="M133.23,0C90.931,0,56.695,34.23,56.695,76.535v70.556c0,3.303,2.677,5.979,5.979,5.979h70.556
				c42.299,0,76.535-34.23,76.535-76.535C209.765,34.236,175.535,0,133.23,0z M133.23,141.111H68.654V76.535
				c0-35.689,28.882-64.576,64.576-64.576c35.689,0,64.576,28.882,64.576,64.576C197.806,112.224,168.924,141.111,133.23,141.111z"
				/>
		</g>
	</g>
</g>
</svg>
