<?xml version="1.0" encoding="utf-8"?>
<!-- Generator: Adobe Illustrator 15.0.2, SVG Export Plug-In . SVG Version: 6.00 Build 0)  -->
<!DOCTYPE svg PUBLIC "-//W3C//DTD SVG 1.1//EN" "http://www.w3.org/Graphics/SVG/1.1/DTD/svg11.dtd">
<svg version="1.1" id="Capa_1" xmlns="http://www.w3.org/2000/svg" xmlns:xlink="http://www.w3.org/1999/xlink" x="0px" y="0px"
	 width="266.46px" height="153.07px" viewBox="0 0 266.46 153.07" enable-background="new 0 0 266.46 153.07" xml:space="preserve">
<g>
	<path d="M140.549,152.64c30.706-3.439,55.313-27.985,58.816-58.69c4.597-40.149-26.61-74.325-65.727-74.764V1.176
		c0-1-1.251-1.531-2.095-0.906L94.459,27.504c-0.625,0.47-0.625,1.376,0,1.846l37.084,27.234c0.844,0.625,2.095,0.063,2.095-0.906
		V37.698c27.485,0.438,49.498,23.826,47.622,51.78c-1.595,24.046-21.2,43.558-45.246,45.089
		c-25.483,1.626-47.152-16.572-51.03-40.648c-0.719-4.472-4.628-7.724-9.13-7.724c-5.597,0-9.975,4.972-9.099,10.506
		C72.196,131.003,103.872,156.737,140.549,152.64z"/>
</g>
</svg>
