<?xml version="1.0" encoding="utf-8"?>
<!-- Generator: Adobe Illustrator 15.0.2, SVG Export Plug-In . SVG Version: 6.00 Build 0)  -->
<!DOCTYPE svg PUBLIC "-//W3C//DTD SVG 1.1//EN" "http://www.w3.org/Graphics/SVG/1.1/DTD/svg11.dtd">
<svg version="1.1" id="Слой_1" xmlns="http://www.w3.org/2000/svg" xmlns:xlink="http://www.w3.org/1999/xlink" x="0px" y="0px"
	 width="90px" height="90px" viewBox="0 0 90 90" enable-background="new 0 0 90 90" xml:space="preserve">
<g transform="translate(0.000000,90.000000) scale(0.100000,-0.100000)">
	<path d="M342.998,798.999c-92.998-11.997-183.999-82.998-225-176.001c-25.996-60-25.996-176.997,0-237.002
		C146.001,324.004,202.998,265,265,235c76.001-37.002,185-37.002,262.002,0.996l53.994,26.006l88.008-86.006
		C717.998,129.004,762.002,90,767.998,90C782.002,90,810,117.998,810,132.002c0,5.996-39.004,50-85.996,98.994l-86.006,88.008
		l26.006,53.994c33.994,70,37.998,182.002,7.998,250C615,751.001,490.996,817.998,342.998,798.999z M459.004,723.999
		c112.998-32.998,186.992-156.001,160.996-265c-57.998-239.995-392.002-239.995-450,0c-25,107.002,47.998,231.001,157.002,265
		C388.999,742.998,396.001,742.998,459.004,723.999z"/>
</g>
</svg>
