<?xml version="1.0" encoding="utf-8"?>
<!-- Generator: Adobe Illustrator 15.0.2, SVG Export Plug-In . SVG Version: 6.00 Build 0)  -->
<!DOCTYPE svg PUBLIC "-//W3C//DTD SVG 1.1//EN" "http://www.w3.org/Graphics/SVG/1.1/DTD/svg11.dtd">
<svg version="1.1" id="Слой_1" xmlns="http://www.w3.org/2000/svg" xmlns:xlink="http://www.w3.org/1999/xlink" x="0px" y="0px"
	 width="90px" height="90px" viewBox="0 0 90 90" enable-background="new 0 0 90 90" xml:space="preserve">
<g transform="translate(0.000000,90.000000) scale(0.100000,-0.100000)">
	<path d="M365,885c-66.001-36.001-105-97.002-105-165v-40h-75h-75V374.004V67.998l33.999-33.994L177.998,0H450h272.002
		l33.994,34.004L790,67.998v306.006V680h-75h-75v40c0,52.998-30.996,112.002-75.996,147.002
		c-30,21.997-49.004,27.998-103.008,30.996C413.999,900,386.001,896.001,365,885z M494.004,810
		c30.996-12.002,55-47.002,62.998-93.999L562.998,680H450H337.002l5.996,36.001C357.002,800,418.999,838.999,494.004,810z M710,350
		c0-177.998-2.998-249.004-12.002-257.998C680.996,75,218.999,75,202.002,92.002c-9.004,8.994-12.002,80-12.002,257.002V595h260h260
		V350z"/>
</g>
</svg>
