<?xml version="1.0" encoding="utf-8"?>
<!-- Generator: Adobe Illustrator 15.0.2, SVG Export Plug-In . SVG Version: 6.00 Build 0)  -->
<!DOCTYPE svg PUBLIC "-//W3C//DTD SVG 1.1//EN" "http://www.w3.org/Graphics/SVG/1.1/DTD/svg11.dtd">
<svg version="1.1" id="Capa_1" xmlns="http://www.w3.org/2000/svg" xmlns:xlink="http://www.w3.org/1999/xlink" x="0px" y="0px"
	 width="512px" height="512px" viewBox="0 0 512 512" enable-background="new 0 0 512 512" xml:space="preserve">
<g>
	<path fill="#231F20" d="M485.339,305.999c3.548-17.112,5.328-33.782,5.328-50c0-31.778-6.16-62.167-18.498-91.168
		c-12.331-28.999-28.999-53.997-49.999-74.998s-45.994-37.667-74.994-50.004c-29.008-12.328-59.388-18.497-91.17-18.497
		c-16.222,0-32.89,1.779-50.001,5.335C182.894,8.89,156.893,0,128.003,0C92.672,0,62.507,12.499,37.505,37.495
		c-25.003,25.003-37.5,55.168-37.5,90.501c0,28.889,8.889,54.89,26.665,78.001c-3.554,17.11-5.333,33.78-5.333,50.001
		c0,31.774,6.165,62.162,18.497,91.166c12.332,28.999,28.999,53.997,50.001,75.002c21,20.999,46.001,37.661,75,49.998
		c29.001,12.334,59.391,18.5,91.168,18.5c16.22,0,32.889-1.782,50.01-5.338c23.104,17.78,49.104,26.674,77.994,26.674
		c35.328,0,65.502-12.505,90.489-37.501c25.004-25.003,37.501-55.169,37.501-90.505
		C511.992,355.111,503.105,329.113,485.339,305.999z M379.996,355.498c-7.328,13.002-17.166,23.39-29.496,31.169
		c-12.337,7.778-25.947,13.716-40.834,17.831c-14.887,4.107-30.44,6.168-46.667,6.168c-37.551,0-69.882-7.279-96.995-21.838
		c-27.113-14.561-40.668-32.053-40.668-52.502c0-9.996,2.835-18.321,8.502-24.994c5.666-6.669,14.055-9.996,25.166-9.996
		c6.445,0,12.442,1.777,17.998,5.329c5.555,3.556,10.665,7.84,15.334,12.841c4.669,5.003,9.721,9.997,15.166,14.999
		c5.442,5.003,12.664,9.277,21.664,12.834c9.001,3.556,19.168,5.338,30.505,5.338c14.443,0,26.105-2.829,35.003-8.494
		c8.885-5.673,13.329-12.842,13.329-21.503c0-8.895-3.553-15.559-10.66-20.002c-4.883-3.121-17.333-7.119-37.334-12.006
		l-48.671-12.007c-13.332-3.108-24.777-6.716-34.334-10.824c-9.557-4.114-18.447-9.497-26.667-16.169
		c-8.218-6.664-14.441-15.05-18.664-25.166c-4.222-10.108-6.333-21.944-6.333-35.5c0-16.224,3.723-30.497,11.165-42.834
		c7.442-12.335,17.336-22.003,29.666-29.002c12.332-7,25.61-12.222,39.835-15.666c14.219-3.445,28.887-5.167,43.998-5.167
		c21.337,0,41.551,2.557,60.666,7.667c19.11,5.11,34.888,12.61,47.329,22.499c12.441,9.893,18.662,20.948,18.662,33.168
		c0,9.996-3.16,18.555-9.501,25.665c-6.321,7.107-14.712,10.664-25.16,10.664c-5.776,0-11.108-1.334-15.997-4.001
		c-4.887-2.665-9.328-5.886-13.337-9.665c-4-3.776-8.228-7.499-12.67-11.165c-4.443-3.666-10.444-6.832-17.991-9.499
		c-7.564-2.667-16.114-4.001-25.669-4.001c-31.997,0-47.999,8.55-47.999,25.665c0,3.776,0.835,7.11,2.5,9.999
		c1.667,2.889,3.503,5.222,5.499,7c1.996,1.78,5.33,3.556,9.999,5.335c4.669,1.781,8.558,3.062,11.668,3.834
		c3.109,0.777,8.002,1.944,14.667,3.498l34.668,7.999c10.887,2.447,20.604,5.004,29.166,7.667c8.559,2.671,17.724,6.446,27.5,11.336
		c9.777,4.889,17.889,10.33,24.33,16.332c6.447,6.006,11.834,13.608,16.173,22.83c4.337,9.225,6.496,19.394,6.496,30.501
		C390.998,327.887,387.338,342.5,379.996,355.498z"/>
</g>
</svg>
