<?xml version="1.0" encoding="utf-8"?>
<!-- Generator: Adobe Illustrator 15.0.2, SVG Export Plug-In . SVG Version: 6.00 Build 0)  -->
<!DOCTYPE svg PUBLIC "-//W3C//DTD SVG 1.1//EN" "http://www.w3.org/Graphics/SVG/1.1/DTD/svg11.dtd">
<svg version="1.1" id="Слой_1" xmlns="http://www.w3.org/2000/svg" xmlns:xlink="http://www.w3.org/1999/xlink" x="0px" y="0px"
	 width="90px" height="90px" viewBox="0 0 90 90" enable-background="new 0 0 90 90" xml:space="preserve">
<g transform="translate(0.000000,90.000000) scale(0.100000,-0.100000)">
	<path d="M375,812.998C228.999,736.001,222.002,548.999,362.002,470c117.002-65.996,263.994,16.001,275.996,153.999
		C649.004,763.999,494.004,876.001,375,812.998z M517.002,725c27.002-18.999,45.996-76.001,37.998-113.999
		C545,562.998,505.996,535,450,535c-81.001,0-126.001,62.002-100,140c15,46.001,43.999,65,100,65C475,740,505,732.998,517.002,725z"
		/>
	<path d="M230,364.004c-83.999-36.006-122.002-103.008-117.998-206.006c1.997-55,6.997-72.998,20.996-82.002
		c33.003-20.996,51.001,4.004,58.003,80C197.002,230.996,210,264.004,240,280c25,12.998,395,12.998,420,0
		c30-15.996,42.998-49.004,49.004-124.004c6.992-75.996,25-100.996,58.994-80c12.998,9.004,17.998,27.002,20,82.002
		c4.004,104.004-35,171.006-120,207.002C615,387.002,281.001,385.996,230,364.004z"/>
</g>
</svg>
