<?xml version="1.0" encoding="utf-8"?>
<!-- Generator: Adobe Illustrator 15.0.2, SVG Export Plug-In . SVG Version: 6.00 Build 0)  -->
<!DOCTYPE svg PUBLIC "-//W3C//DTD SVG 1.1//EN" "http://www.w3.org/Graphics/SVG/1.1/DTD/svg11.dtd">
<svg version="1.1" id="Capa_1" xmlns="http://www.w3.org/2000/svg" xmlns:xlink="http://www.w3.org/1999/xlink" x="0px" y="0px"
	 width="512px" height="512px" viewBox="0 0 512 512" enable-background="new 0 0 512 512" xml:space="preserve">
<g>
	<path id="WhatsApp" fill="#231F20" d="M512,249.407c0,137.745-112.521,249.407-251.347,249.407
		c-44.072,0-85.476-11.265-121.498-31.033L0,512l45.369-133.814c-22.887-37.58-36.068-81.658-36.068-128.779
		C9.301,111.662,121.833,0,260.653,0C399.49,0,512,111.662,512,249.407z M260.653,39.72c-116.531,0-211.319,94.066-211.319,209.687
		c0,45.88,14.956,88.371,40.255,122.937l-26.402,77.875l81.209-25.811c33.365,21.908,73.335,34.686,116.264,34.686
		c116.515,0,211.319-94.055,211.319-209.676S377.18,39.72,260.653,39.72z M387.578,306.848c-1.553-2.543-5.654-4.079-11.811-7.134
		c-6.166-3.056-36.465-17.853-42.098-19.884c-5.648-2.036-9.768-3.061-13.869,3.056c-4.102,6.121-15.912,19.883-19.513,23.962
		c-3.595,4.09-7.185,4.602-13.353,1.541c-6.154-3.055-26.004-9.518-49.538-30.338c-18.313-16.203-30.68-36.205-34.276-42.332
		c-3.589-6.116-0.375-9.421,2.703-12.464c2.776-2.742,6.167-7.14,9.244-10.707c3.089-3.573,4.113-6.116,6.155-10.2
		c2.065-4.079,1.036-7.646-0.512-10.712c-1.536-3.055-13.87-33.138-19.001-45.38c-5.131-12.231-10.257-10.195-13.858-10.195
		c-3.589,0-7.703-0.512-11.81-0.512s-10.786,1.53-16.435,7.646c-5.644,6.122-21.555,20.913-21.555,50.99
		c0,30.083,22.067,59.147,25.156,63.221c3.078,4.073,42.61,67.812,105.245,92.291c62.641,24.468,62.641,16.304,73.938,15.28
		c11.286-1.019,36.442-14.785,41.597-29.054C389.109,321.633,389.109,309.396,387.578,306.848z"/>
</g>
</svg>
